# xmcd
#
# Track frame offsets:
#	150
#	13240
#	26230
#	41195
#	55907
#	76177
#	96415
#	108685
#	134152
#	150730
#	165742
#	178830
#	192562
#	207340
#	222022
#	233620
#	247087
#	257507
#	266777
#	279767
#	291902
#	316920
#
# Disc length: 4397 seconds
#
# Revision: 1
# Processed by: cddbd v1.4PL0 Copyright (c) Steve Scherf et al.
# Submitted via: audiograbber 1.82.02
#
DISCID=51112b16
DTITLE=James Talley - Black Jack Choir - Ain't It Somethin`
DYEAR=1977
DGENRE=Country
TTITLE0=Bluesman
TTITLE1=Alabama Summertime
TTITLE2=Everybody Loves a Lovesong
TTITLE3=Magnolia Boy
TTITLE4=Mississippi River Whistle Town
TTITLE5=Daddy Just Called it the Blues
TTITLE6=Up From Georgia
TTITLE7=Migrant Jesse Sawyer
TTITLE8=You Know I've Got to Love Her
TTITLE9=When the Fiddler Packs his Case
TTITLE10=Ain't it Something
TTITLE11=Only the Best
TTITLE12=We Keep Tryin'
TTITLE13=Dixie Blue
TTITLE14=Not Even When it's Over
TTITLE15=Nine Pounds of Hashbrowns
TTITLE16=Richland, Washington
TTITLE17=Middle 'C' Mama
TTITLE18=Woman Trouble
TTITLE19=Old Time Religion
TTITLE20=Poets of the West Virginia Mines
TTITLE21=What will there be for the Children
EXTD=
EXTT0=
EXTT1=
EXTT2=
EXTT3=
EXTT4=
EXTT5=
EXTT6=
EXTT7=
EXTT8=
EXTT9=
EXTT10=
EXTT11=
EXTT12=
EXTT13=
EXTT14=
EXTT15=
EXTT16=
EXTT17=
EXTT18=
EXTT19=
EXTT20=
EXTT21=
PLAYORDER=
